<?xml version="1.0" encoding="iso-8859-1"?>
<!-- Generator: Adobe Illustrator 21.0.0, SVG Export Plug-In . SVG Version: 6.00 Build 0)  -->
<svg version="1.1" id="Lager_1" xmlns="http://www.w3.org/2000/svg" xmlns:xlink="http://www.w3.org/1999/xlink" x="0px" y="0px"
	 viewBox="0 0 195.734 44.832" style="enable-background:new 0 0 195.734 44.832;" xml:space="preserve">
<path style="fill:#FFFFFF;" d="M2.72,32.353c0.105-0.23,0.105-0.398-0.042-0.398c-0.147,0-0.693,0.252-1.743,1.109
	c-0.189-0.021-0.315-0.188-0.273-0.356c1.155-1.318,2.772-2.093,3.466-2.093c0.147,0,0.252,0.125,0.336,0.209
	c0.126,0.125,0.126,0.314-0.126,0.921l-2.5,5.943c-0.084,0.209-0.105,0.46,0.063,0.46c0.357,0,1.47-0.732,2.185-1.549
	c0.21,0.021,0.315,0.168,0.315,0.356c-0.315,0.607-2.479,2.5-3.928,2.5c-0.105,0-0.231-0.063-0.336-0.19
	c-0.126-0.147-0.189-0.337-0.084-0.569L2.72,32.353z M5.409,26.353c0,0.651-0.462,1.323-1.113,1.323
	c-0.546,0-0.756-0.42-0.756-0.798c0-0.462,0.315-1.323,1.135-1.323C5.157,25.556,5.409,25.892,5.409,26.353z"/>
<path style="fill:#FFFFFF;" d="M18.793,35.143l0.063,0.042c1.482-2.261,3.583-4.567,5.147-4.567c0.818,0,1.175,0.441,1.175,1.133
	c0,0.335-0.168,0.984-0.336,1.465c-0.378,1.047-1.883,4.459-1.945,4.627c-0.083,0.209-0.104,0.398,0.042,0.398
	c0.355,0,1.358-0.691,1.967-1.424c0.294-0.042,0.336,0.125,0.336,0.293c-0.798,1.341-2.448,2.349-3.594,2.349
	c-0.188,0-0.5-0.273-0.5-0.525c0-0.189,0.063-0.336,0.5-1.384c0.438-1.026,1.209-3.078,1.688-4.125
	c0.167-0.377,0.438-1.109,0.438-1.528c0-0.251-0.021-0.502-0.333-0.502c-0.5,0-1.729,1.047-2.904,2.491
	c-1.117,1.382-1.973,3.015-3.212,5.321c-0.105,0.189-0.189,0.252-0.378,0.252c-0.231,0-0.798-0.063-0.609-0.546
	c0.105-0.273,2.331-6.304,2.436-6.597c0.104-0.272,0.104-0.482-0.063-0.482c-0.483,0-1.218,0.44-1.911,1.047
	c-0.168,0-0.273-0.146-0.252-0.314c0.798-1.089,2.079-1.95,3.123-1.95c0.5,0,0.735,0.378,0.542,0.861L18.793,35.143z"/>
<path style="fill:#FFFFFF;" d="M40.721,31.677c-0.126,0.357-0.294,1.029-0.483,1.659c-0.672,2.331-1.281,4.663-1.974,6.973
	c-0.588,1.89-1.218,3.045-1.659,3.444c-0.252,0.252-1.155,1.079-2.394,1.079c-0.966,0-1.365-0.721-1.365-1.079
	c0-0.462,0.252-0.651,0.399-0.756c0.294-0.252,0.441-0.084,0.609,0.189c0.294,0.483,0.84,0.777,1.26,0.777
	c0.378,0,0.882-0.315,1.323-1.743c1.071-3.507,1.764-7.12,2.772-10.543h-1.743c-0.21-0.189-0.126-0.588,0.147-0.777h1.806
	c0.546-1.883,1.092-3.515,2.331-4.979c1.05-1.235,2.289-1.739,3.528-1.739c0.879,0,1.712,0.546,1.712,1.384
	c0,0.649-0.563,1.297-0.896,1.297c-0.188,0-0.271-0.188-0.292-0.335c-0.063-1.255-0.735-1.632-1.281-1.632
	c-0.609,0-1.134,0.418-1.638,1.13c-0.987,1.402-1.407,3.097-1.974,4.875h2.625c0.147,0.231,0.105,0.546-0.21,0.777H40.721z"/>
<path style="fill:#FFFFFF;" d="M57.697,31.241c0.739,0,0.866,0.734,0.845,1.384c-0.042,1.112-1.035,3.881-1.965,5.119
	c-0.676,0.902-1.204,1.091-1.669,1.091c-0.612,0-0.908-0.608-0.866-1.342c0.063-1.112,0.888-3.608,2.113-5.245
	C56.767,31.43,57.274,31.241,57.697,31.241z M57.845,30.616c-0.866,0-1.816,0.313-2.915,1.359c-1.433,1.363-2.21,3.398-2.294,4.699
	c-0.126,1.804,0.756,2.786,2.104,2.786c0.571,0,1.711-0.104,3.021-1.443c1.553-1.595,2.157-3.608,2.219-4.762
	C60.064,31.724,59.334,30.616,57.845,30.616z"/>
<path style="fill:#FFFFFF;" d="M74.941,32.601l-0.896,2.643h0.104c0.625-1.175,1.651-2.853,2.197-3.544
	c0.483-0.625,1.008-1.083,1.533-1.083c0.735,0,0.84,0.708,0.84,1.021c0,0.313-0.189,0.921-0.441,1.257
	c-0.252,0.315-0.588,0.336-0.672-0.105c-0.105-0.545-0.231-0.818-0.441-0.818c-0.189,0-0.42,0.21-0.735,0.629
	c-1.281,1.636-2.448,4.195-3.561,6.607c-0.084,0.168-0.189,0.252-0.357,0.252c-0.231,0-0.84-0.084-0.693-0.545
	c0.273-0.839,1.596-4.552,2.163-6.608c0.063-0.23,0.021-0.44-0.168-0.44c-0.546,0-1.113,0.587-1.491,1.091
	c-0.21,0.042-0.357-0.084-0.336-0.335c0.672-1.13,1.47-2.005,2.474-2.005C75.507,30.616,75.129,32.034,74.941,32.601z"/>
<path style="fill:#FFFFFF;" d="M97.56,33.342l-0.791,1.926l0.063,0.042c2.007-3.203,3.603-4.692,4.989-4.692
	c0.798,0,1.176,0.441,1.176,1.133c0,0.335-0.147,0.984-0.337,1.465c-0.378,1.047-1.89,4.459-1.953,4.627
	c-0.084,0.209-0.105,0.398,0.042,0.398c0.357,0,1.365-0.691,1.974-1.424c0.294-0.042,0.336,0.125,0.336,0.293
	c-0.798,1.341-2.457,2.349-3.612,2.349c-0.189,0-0.504-0.273-0.504-0.525c0-0.189,0.063-0.336,0.504-1.384
	c0.441-1.026,1.281-3.057,1.701-4.125c0.147-0.377,0.441-1.109,0.441-1.528c0-0.251-0.021-0.502-0.336-0.502
	c-0.609,0-1.617,1.068-2.751,2.512c-1.067,1.34-2.006,2.994-3.288,5.3c-0.105,0.168-0.189,0.252-0.378,0.252
	c-0.231,0-0.798-0.063-0.609-0.546l2.079-5.487c0.084-0.23,0.92-2.031,0.168-2.031c-0.588,0-1.764,1.089-2.919,2.512
	c-1.092,1.361-1.932,2.994-3.15,5.3c-0.105,0.189-0.189,0.252-0.378,0.252c-0.231,0-0.798-0.063-0.609-0.546
	c0.063-0.168,2.31-6.283,2.394-6.597c0.105-0.356,0.084-0.586-0.147-0.586c-0.693,0-1.428,0.628-1.848,1.151
	c-0.21,0-0.315-0.146-0.294-0.314c0.525-1.005,1.638-1.95,3.234-1.95c0.483,0,0.693,0.378,0.504,0.861l-1.449,3.789l0.063,0.042
	c1.512-2.47,3.486-4.692,5.08-4.692C98.46,30.618,97.977,32.275,97.56,33.342z"/>
<path style="fill:#FFFFFF;" d="M119.979,31.707c0.546,0,0.903,0.356,1.05,0.754c-0.336,1.236-1.217,3.037-2.815,4.524
	c-1.201,1.089-1.833,1.362-2.044,1.362c-0.19,0-0.316-0.147-0.316-0.398c0-1.487,1.286-4.23,2.634-5.424
	C119.14,31.937,119.476,31.707,119.979,31.707z M121.555,31.474c-0.105-0.212-0.336-0.403-0.42-0.446
	c-0.126-0.063-0.273-0.127-0.504-0.127c-0.546,0-1.07,0.148-1.889,0.616c-0.864,0.484-1.77,1.322-2.782,2.704
	c-1.387,1.906-1.85,3.582-1.85,4.063c0,0.588,0.336,1.176,0.925,1.176c0.988,0,3.138-1.448,4.63-3.291l0.063,0.021l-0.692,1.885
	c-0.168,0.482-0.21,0.671-0.21,0.818c0,0.168,0.126,0.567,0.608,0.567c1.154,0,2.646-1.176,3.527-2.349
	c0-0.168-0.147-0.272-0.294-0.272c-1.197,1.047-1.806,1.403-2.163,1.403c-0.168,0-0.273-0.126-0.147-0.482
	c0.672-1.906,2.499-6.541,2.814-7.321c-0.126-0.273-0.672-0.483-1.029-0.315L121.555,31.474z"/>
<path style="fill:#FFFFFF;" d="M138.089,31.927l-1.888,5.503c-0.126,0.397-0.021,0.523,0.146,0.523c0.315,0,1.699-1.088,2.392-1.883
	c0.209,0,0.336,0.126,0.293,0.377c-1.174,1.737-3.146,3.013-4.026,3.013c-0.293,0-0.566-0.314-0.566-0.565
	c0-0.272,0.084-0.565,0.294-1.193l1.972-5.775h-1.636c-0.043-0.21,0.021-0.504,0.231-0.588l1.678-0.294l1.174-2.084
	c0.21-0.125,0.629-0.083,0.797,0.125l-0.607,2.064h2.285c0.148,0.21,0.021,0.63-0.251,0.777H138.089z"/>
<path style="fill:#FFFFFF;" d="M153.331,32.353c0.105-0.23,0.105-0.398-0.042-0.398c-0.146,0-0.692,0.252-1.742,1.109
	c-0.189-0.021-0.315-0.188-0.273-0.356c1.155-1.318,2.773-2.093,3.466-2.093c0.146,0,0.252,0.125,0.336,0.209
	c0.126,0.125,0.126,0.314-0.126,0.921l-2.5,5.943c-0.084,0.209-0.104,0.46,0.064,0.46c0.356,0,1.47-0.732,2.184-1.549
	c0.21,0.021,0.316,0.168,0.316,0.356c-0.316,0.607-2.48,2.5-3.929,2.5c-0.104,0-0.23-0.063-0.335-0.19
	c-0.127-0.147-0.189-0.337-0.085-0.569L153.331,32.353z M156.02,26.353c0,0.651-0.462,1.323-1.113,1.323
	c-0.547,0-0.757-0.42-0.757-0.798c0-0.462,0.315-1.323,1.135-1.323C155.768,25.556,156.02,25.892,156.02,26.353z"/>
<path style="fill:#FFFFFF;" d="M171.726,31.241c0.739,0,0.866,0.734,0.845,1.384c-0.042,1.112-1.035,3.881-1.965,5.119
	c-0.676,0.902-1.203,1.091-1.668,1.091c-0.613,0-0.909-0.608-0.867-1.342c0.063-1.112,0.888-3.608,2.113-5.245
	C170.797,31.43,171.305,31.241,171.726,31.241z M171.875,30.616c-0.866,0-1.817,0.313-2.916,1.359
	c-1.434,1.363-2.209,3.398-2.294,4.699c-0.126,1.804,0.756,2.786,2.104,2.786c0.57,0,1.711-0.104,3.021-1.443
	c1.553-1.595,2.156-3.608,2.219-4.762C174.093,31.724,173.363,30.616,171.875,30.616z"/>
<path style="fill:#FFFFFF;" d="M188.221,35.143l0.063,0.042c1.482-2.261,3.583-4.567,5.146-4.567c0.818,0,1.176,0.441,1.176,1.133
	c0,0.335-0.168,0.984-0.336,1.465c-0.378,1.047-1.883,4.459-1.945,4.627c-0.083,0.209-0.105,0.398,0.042,0.398
	c0.354,0,1.357-0.691,1.967-1.424c0.294-0.042,0.335,0.125,0.335,0.293c-0.798,1.341-2.448,2.349-3.594,2.349
	c-0.188,0-0.5-0.273-0.5-0.525c0-0.189,0.063-0.336,0.5-1.384c0.438-1.026,1.208-3.078,1.688-4.125
	c0.167-0.377,0.438-1.109,0.438-1.528c0-0.251-0.021-0.502-0.333-0.502c-0.5,0-1.729,1.047-2.904,2.491
	c-1.116,1.382-1.974,3.015-3.212,5.321c-0.105,0.189-0.189,0.252-0.379,0.252c-0.23,0-0.797-0.063-0.608-0.546
	c0.104-0.273,2.331-6.304,2.437-6.597c0.104-0.272,0.104-0.482-0.064-0.482c-0.482,0-1.219,0.44-1.911,1.047
	c-0.168,0-0.273-0.146-0.252-0.314c0.798-1.089,2.079-1.95,3.122-1.95c0.5,0,0.735,0.378,0.542,0.861L188.221,35.143z"/>
<path style="fill:#FFFFFF;" d="M5.115,10.869V8.71h0.378c0.797,0,1.813-0.08,1.813,1.04c0,1.04-0.897,1.12-1.693,1.12H5.115z
	 M0.027,20.179h7.466c2.643,0,5.528-1.058,5.528-4.162c0-1.824-1.042-3.027-2.684-3.608v-0.12c1.309-0.42,1.969-1.721,1.969-3.041
	c0-3.467-2.98-4.165-5.897-4.165H0.027V20.179z M5.115,14.051h0.538c0.881,0,2.281-0.02,2.281,1.257
	c0,1.257-1.299,1.277-2.199,1.277h-0.62V14.051z"/>
<path style="fill:#FFFFFF;" d="M24.929,5.085v10.184c0,3-2.124,5.16-5.149,5.16c-1.561,0-3.281-0.68-4.501-1.64l1.86-4.663
	c0.28,0.722,0.6,1.583,1.46,1.583c0.88,0,0.96-1.002,0.96-1.644V5.085H24.929z"/>
<path style="fill:#FFFFFF;" d="M37.168,9.801c1.737,0,2.815,1.349,2.815,2.959c0,1.731-1.158,2.918-2.815,2.918
	c-1.657,0-2.815-1.188-2.815-2.918C34.352,11.149,35.43,9.801,37.168,9.801z M34.758,0.812c-0.918,0-1.656,0.738-1.656,1.656
	c0,0.918,0.738,1.656,1.656,1.656c0.918,0,1.656-0.738,1.656-1.656C36.414,1.551,35.676,0.812,34.758,0.812z M39.601,0.812
	c-0.918,0-1.656,0.738-1.656,1.656c0,0.918,0.738,1.656,1.656,1.656c0.918,0,1.656-0.738,1.656-1.656
	C41.258,1.551,40.519,0.812,39.601,0.812z M37.168,4.838c-4.577,0-8.341,3.082-8.341,7.841c0,4.855,3.744,7.75,8.341,7.75
	c4.597,0,8.341-2.894,8.341-7.75C45.509,7.92,41.745,4.838,37.168,4.838z"/>
<path style="fill:#FFFFFF;" d="M54.807,9.207h0.422c0.946,0,1.771,0.141,1.771,1.302c0,1.121-0.906,1.261-1.811,1.261h-0.382V9.207z
	 M49.438,20.179h5.369v-4.845h0.101l2.413,4.845h6.329l-3.284-4.905c-0.3-0.44-0.641-0.681-0.921-0.901v-0.12
	c2.043-0.681,2.925-1.642,2.925-3.924c0-3.801-2.885-5.241-6.295-5.241h-6.637V20.179z"/>
<path style="fill:#FFFFFF;" d="M66.515,5.085h5.264l4.911,8.368h0.16c-0.22-1.261-0.46-2.562-0.46-3.843V5.085h5.244v15.094H76.39
	l-4.811-7.927h-0.16c0.18,1.041,0.34,2.022,0.34,3.023v4.904h-5.244V5.085z"/>
<path style="fill:#FFFFFF;" d="M96.366,5.085h5.469v10.252h4.6v4.84H96.366V5.085z"/>
<path style="fill:#FFFFFF;" d="M123.821,5.085v8.951c0,4.398-2.754,6.393-6.984,6.393c-4.23,0-6.984-1.995-6.984-6.393V5.085h5.469
	v8.429c0,1.184,0.041,2.227,1.516,2.227c1.475,0,1.516-1.043,1.516-2.227V5.085H123.821z"/>
<path style="fill:#FFFFFF;" d="M128.155,5.085h5.264l4.911,8.368h0.161c-0.221-1.261-0.461-2.562-0.461-3.843V5.085h5.244v15.094
	h-5.244l-4.811-7.927h-0.161c0.181,1.041,0.341,2.022,0.341,3.023v4.904h-5.244V5.085z"/>
<path style="fill:#FFFFFF;" d="M153.186,9.804h0.34c2.002,0,3.223,0.901,3.223,3.023c0,1.983-1.401,2.823-3.223,2.823h-0.34V9.804z
	 M147.717,20.176h6.931c4.416,0,7.569-2.843,7.569-7.329c0-5.543-3.872-7.762-8.931-7.762h-5.569V20.176z"/>
<path style="fill:#FFFFFF;" d="M173.763,1.657l-3.3,2.874l-1.82-1.238L171.263,0L173.763,1.657z M166.135,5.087h10.146v4.12h-4.62
	v1.471h4.221v3.906h-4.221v1.471h4.78v4.12h-10.306V5.087z"/>
<path style="fill:#FFFFFF;" d="M180.615,5.085h5.265l4.91,8.368h0.16c-0.22-1.261-0.46-2.562-0.46-3.843V5.085h5.244v15.094h-5.244
	l-4.811-7.927h-0.161c0.181,1.041,0.341,2.022,0.341,3.023v4.904h-5.244V5.085z"/>
</svg>
