<?xml version="1.0" encoding="iso-8859-1"?>
<!-- Generator: Adobe Illustrator 21.0.0, SVG Export Plug-In . SVG Version: 6.00 Build 0)  -->
<svg version="1.1" id="Lager_1" xmlns="http://www.w3.org/2000/svg" xmlns:xlink="http://www.w3.org/1999/xlink" x="0px" y="0px"
	 viewBox="0 0 370.515 444.312" style="enable-background:new 0 0 370.515 444.312;" xml:space="preserve">
<path style="fill:#FFFFFF;" d="M102.117,45.519C73.821,16.863,35.452,1.656,0.028,0v66.228c26.28,2.592,72.857,24.074,72.209,63.962
	c-0.432,29.375-26.702,57.297-72.206,63.921v65.736c36.576-1.8,76.454-19.785,97.766-40.45
	c17.496-16.991,39.744-45.791,40.248-88.055C138.477,96.711,123.141,66.831,102.117,45.519z"/>
<path style="fill:#FFFFFF;" d="M142.293,309.255c0-31.752-10.656-56.808-27.36-77.833c-7.992,7.201-16.56,14.617-26.424,20.449
	c-8.856,5.184-16.056,8.928-30.168,14.328c7.272,8.28,18.288,21.456,18.504,43.128c0.288,31.68-30.542,64.569-76.839,69.177
	L0,444.312c37.224-1.368,71.805-15.321,97.941-38.649C125.229,381.327,142.293,349.431,142.293,309.255z"/>
<polygon style="fill:#FFFFFF;" points="252.095,4.406 185.754,4.368 185.821,440.529 252.142,440.471 "/>
<polygon style="fill:#FFFFFF;" points="370.487,376.05 278.658,376.075 278.658,440.52 370.515,440.49 "/>
</svg>
