<svg width="61" height="52" viewBox="0 0 61 52" fill="none" xmlns="http://www.w3.org/2000/svg">
<path d="M54.6459 5.16666H22.3542C21.4912 5.16666 20.7917 5.86621 20.7917 6.72916C20.7917 7.5921 21.4912 8.29166 22.3542 8.29166H54.6459C55.5088 8.29166 56.2084 7.5921 56.2084 6.72916C56.2084 5.86621 55.5088 5.16666 54.6459 5.16666Z" fill="#B4DEED"/>
<path d="M58.8125 23.9167H22.3542C21.4912 23.9167 20.7917 24.6162 20.7917 25.4792C20.7917 26.3421 21.4912 27.0417 22.3542 27.0417H58.8125C59.6755 27.0417 60.375 26.3421 60.375 25.4792C60.375 24.6162 59.6755 23.9167 58.8125 23.9167Z" fill="#E4E4E4"/>
<path d="M47.3542 42.6667H22.3542C21.4912 42.6667 20.7917 43.3662 20.7917 44.2292C20.7917 45.0921 21.4912 45.7917 22.3542 45.7917H47.3542C48.2171 45.7917 48.9167 45.0921 48.9167 44.2292C48.9167 43.3662 48.2171 42.6667 47.3542 42.6667Z" fill="#B4DEED"/>
<path d="M11.4167 1H3.08333C1.93274 1 1 1.93274 1 3.08333V11.4167C1 12.5673 1.93274 13.5 3.08333 13.5H11.4167C12.5673 13.5 13.5 12.5673 13.5 11.4167V3.08333C13.5 1.93274 12.5673 1 11.4167 1Z" stroke="#58A3BE"/>
<path d="M11.4167 19.75H3.08333C1.93274 19.75 1 20.6827 1 21.8333V30.1667C1 31.3173 1.93274 32.25 3.08333 32.25H11.4167C12.5673 32.25 13.5 31.3173 13.5 30.1667V21.8333C13.5 20.6827 12.5673 19.75 11.4167 19.75Z" stroke="#E4E4E4"/>
<path d="M11.4167 38.5H3.08333C1.93274 38.5 1 39.4327 1 40.5833V48.9167C1 50.0673 1.93274 51 3.08333 51H11.4167C12.5673 51 13.5 50.0673 13.5 48.9167V40.5833C13.5 39.4327 12.5673 38.5 11.4167 38.5Z" stroke="#58A3BE"/>
<path d="M4.125 6.83332L6.20833 9.33332L10.375 5.16666" stroke="#58A3BE" stroke-linecap="round" stroke-linejoin="round"/>
<path d="M4.125 44.3333L6.20833 46.8333L10.375 42.6667" stroke="#58A3BE" stroke-linecap="round" stroke-linejoin="round"/>
</svg>
