<svg width="70" height="52" viewBox="0 0 70 52" fill="none" xmlns="http://www.w3.org/2000/svg">
<path d="M3.15018 37.5854H28.1181C29.3057 37.5854 30.2683 36.6245 30.2683 35.438V3.1474C30.2683 1.96085 29.3057 1 28.1181 1H10.644C10.3191 1 10.0077 1.12965 9.77873 1.36018L1.3542 9.84322C1.12732 10.0717 0.999987 10.3806 0.999987 10.7026V35.438C0.999987 36.6245 1.96258 37.5854 3.15018 37.5854Z" fill="white" stroke="#58A3BE"/>
<path d="M10.7561 1V9.31547C10.7561 10.1145 10.1283 10.7561 9.35957 10.7561H1.00001V9.80538L9.61603 1H10.7561Z" fill="#E0EFF4" stroke="#58A3BE"/>
<path d="M24.7805 15.0244H6.48779V16.2439H24.7805V15.0244Z" fill="#58A3BE"/>
<path d="M24.7805 8.92682H16.2439V10.1463H24.7805V8.92682Z" fill="#58A3BE"/>
<path d="M24.7805 21.1219H6.48779V22.3415H24.7805V21.1219Z" fill="#58A3BE"/>
<path d="M42.1746 37.5854H67.1425C68.3301 37.5854 69.2927 36.6245 69.2927 35.438V3.1474C69.2927 1.96085 68.3301 1 67.1425 1H49.6684C49.3435 1 49.0321 1.12965 48.8031 1.36018L40.3786 9.84322C40.1517 10.0717 40.0244 10.3806 40.0244 10.7026V35.438C40.0244 36.6245 40.987 37.5854 42.1746 37.5854Z" fill="white" stroke="#58A3BE"/>
<path d="M49.7805 1V9.31547C49.7805 10.1145 49.1527 10.7561 48.3839 10.7561H40.0244V9.80538L48.6404 1H49.7805Z" fill="#E0EFF4" stroke="#58A3BE"/>
<path d="M63.8049 15.0244H45.5122V16.2439H63.8049V15.0244Z" fill="#58A3BE"/>
<path d="M63.8049 8.92682H55.2683V10.1463H63.8049V8.92682Z" fill="#58A3BE"/>
<path d="M63.8049 21.1219H45.5122V22.3415H63.8049V21.1219Z" fill="#58A3BE"/>
<path d="M48.561 37.5854C48.561 30.1767 42.555 24.1707 35.1464 24.1707C27.7377 24.1707 21.7317 30.1767 21.7317 37.5854C21.7317 44.9941 27.7377 51 35.1464 51C42.555 51 48.561 44.9941 48.561 37.5854Z" fill="#E0EFF4" stroke="#58A3BE"/>
<path d="M28.439 37.9512L32.9106 43.0732L41.8537 34.5366" stroke="#58A3BE" stroke-width="1.5" stroke-linecap="round" stroke-linejoin="round"/>
</svg>
