<svg width="21" height="22" viewBox="0 0 21 22" fill="none" xmlns="http://www.w3.org/2000/svg">
<path d="M21 1.67188V20.3281C21 20.6406 20.8906 20.9062 20.6719 21.125C20.4531 21.375 20.1719 21.5 19.8281 21.5H14.4844V13.3438H17.2031L17.625 10.2031H14.4844V8.1875C14.4844 7.65625 14.5781 7.28125 14.7656 7.0625C15.0156 6.78125 15.4375 6.64062 16.0312 6.64062H17.7188V3.78125C17.0625 3.71875 16.25 3.6875 15.2812 3.6875C14.0625 3.6875 13.0781 4.04688 12.3281 4.76562C11.5781 5.48437 11.2031 6.51562 11.2031 7.85938V10.2031H8.48438V13.3438H11.2031V21.5H1.17188C0.828125 21.5 0.546875 21.375 0.328125 21.125C0.109375 20.9062 0 20.6406 0 20.3281V1.67188C0 1.32813 0.109375 1.04688 0.328125 0.828125C0.546875 0.609375 0.828125 0.5 1.17188 0.5H19.8281C20.1406 0.5 20.4062 0.609375 20.625 0.828125C20.875 1.04688 21 1.32813 21 1.67188Z" fill="white"/>
</svg>