<svg width="64" height="51" viewBox="0 0 64 51" fill="none" xmlns="http://www.w3.org/2000/svg">
<path d="M16 6.66667H14.6667V2C14.6667 0.89543 15.5621 0 16.6667 0H28.6667C29.7712 0 30.6667 0.89543 30.6667 2V6.66667H29.3333V2C29.3333 1.63181 29.0348 1.33333 28.6667 1.33333H16.6667C16.2985 1.33333 16 1.63181 16 2V6.66667Z" fill="#58A3BE"/>
<path d="M1.33333 25.3333H16.4848V26.6667H0V8.66668C0 6.82573 1.49238 5.33334 3.33333 5.33334H42C43.8409 5.33334 45.3333 6.82573 45.3333 8.66668V26.6667H28.8485V25.3333H44V8.66668C44 7.56211 43.1046 6.66668 42 6.66668H3.33333C2.22876 6.66668 1.33333 7.56211 1.33333 8.66668V25.3333Z" fill="#58A3BE"/>
<path d="M42.6667 28H44V38C44 39.8409 42.5076 41.3333 40.6667 41.3333H4.66668C2.82573 41.3333 1.33334 39.8409 1.33334 38V28H2.66668V38C2.66668 39.1046 3.56211 40 4.66668 40H40.6667C41.7712 40 42.6667 39.1046 42.6667 38V28Z" fill="#58A3BE"/>
<path d="M63.3333 35.3333C63.3333 27.2331 56.7668 20.6667 48.6667 20.6667C40.5665 20.6667 34 27.2331 34 35.3333C34 43.4335 40.5665 50 48.6667 50C56.7668 50 63.3333 43.4335 63.3333 35.3333Z" fill="#E0EFF4" stroke="#58A3BE"/>
<path d="M41.3333 35.7333L46.2222 41.3333L56 32" stroke="#58A3BE" stroke-width="1.5" stroke-linecap="round" stroke-linejoin="round"/>
<path d="M28.6667 22H16.6667V28.6667H28.6667V22Z" fill="white" stroke="#58A3BE"/>
</svg>
