<svg width="23" height="24" viewBox="0 0 23 24" fill="none" xmlns="http://www.w3.org/2000/svg">
<path d="M22.875 12.2812C22.875 14.4688 22.4062 16.4219 21.4688 18.1406C20.5312 19.8594 19.2031 21.2031 17.4844 22.1719C15.7969 23.1406 13.8438 23.625 11.625 23.625C9.53125 23.625 7.59375 23.0938 5.8125 22.0312C4.03125 21 2.60938 19.5938 1.54688 17.8125C0.515625 16.0312 0 14.0938 0 12C0 9.90625 0.515625 7.96875 1.54688 6.1875C2.60938 4.40625 4.03125 3 5.8125 1.96875C7.59375 0.90625 9.53125 0.375 11.625 0.375C14.6562 0.375 17.25 1.39063 19.4062 3.42188L16.2656 6.46875C15.2656 5.5 14.0625 4.92188 12.6562 4.73438C11.3438 4.54688 10.0469 4.73438 8.76562 5.29688C7.48438 5.85938 6.45312 6.70312 5.67188 7.82812C4.82812 9.04688 4.40625 10.4375 4.40625 12C4.40625 13.3438 4.73438 14.5781 5.39062 15.7031C6.04688 16.7969 6.92188 17.6875 8.01562 18.375C9.10938 19.0312 10.3125 19.3594 11.625 19.3594C13.0312 19.3594 14.2656 19.0469 15.3281 18.4219C16.1719 17.9219 16.875 17.25 17.4375 16.4062C17.8438 15.7188 18.1094 15.0312 18.2344 14.3438H11.625V10.3125H22.6875C22.8125 11 22.875 11.6562 22.875 12.2812Z" fill="white"/>
</svg>