<svg id="BLUE" xmlns="http://www.w3.org/2000/svg" viewBox="0 0 643.23 161.56"><defs><style>.cls-1{fill:#0760bf;}.cls-2{fill:#0672e5;}</style></defs><title>lysa-logo</title><path class="cls-1" d="M358.66,932.94l-11.11-11.11-11.67-11.77c-10.73-10.73-3.14-20.87-.35-23.67a146.81,146.81,0,0,1-13,10.69c-5,6.78-19.55,21.88-7.32,41.26l1.46,1.45S331.84,959.76,358.66,932.94Z" transform="translate(-287.87 -818.92)"/><path class="cls-1" d="M373.94,864.84L385,875.95l11.66,11.78c10.73,10.73,3.13,20.87.35,23.68,6.16-5.78,8.75-6.7,11.09-9.62,0,0,21.49-23,9.26-42.35l-2-2S400.16,838.62,373.94,864.84Z" transform="translate(-287.87 -818.92)"/><path class="cls-2" d="M428.93,871l-13.54-13.54c11.31,18.72-.41,32.48-6.74,40.41q-1.2,1.51-2.49,2.94l-2.86,3.16,0.16-.16-0.16.16-25.38,25.38c-4.43,4.43-8.33,8.3-11.77,11.69L342,965.18a106.81,106.81,0,0,0,17.37,12.55c17.86,10.13,37-11,37-11l34.67-35,0.71-.7C461.29,901.42,428.93,871,428.93,871Z" transform="translate(-287.87 -818.92)"/><path class="cls-2" d="M371.46,820.71c-19.22-7.22-35.7,9.72-35.7,9.72l-34.67,35-0.71.7c-29.65,29.65,2.71,60.13,2.71,60.13l13.54,13.54c-11.31-18.72.41-32.48,6.74-40.41q1.2-1.51,2.49-2.94l2.86-3.16-0.16.16,0.16-.16,25.38-25.38c3.94-3.94,7.46-7.43,10.61-10.52L390.07,832C388.08,829.86,382.64,824.91,371.46,820.71Z" transform="translate(-287.87 -818.92)"/><path class="cls-2" d="M390.07,832" transform="translate(-287.87 -818.92)"/><line class="cls-2" x1="102.2" y1="13.12" x2="76.83" y2="38.48"/><path class="cls-2" d="M498.17,846.05V954.18a3.26,3.26,0,0,0,3.26,3.26h84a3.26,3.26,0,0,0,3.26-3.26V938a4.83,4.83,0,0,0-4.83-4.83H529.61a3.26,3.26,0,0,1-3.26-3.26V845.31a3.26,3.26,0,0,0-3.26-3.26H502.16A4,4,0,0,0,498.17,846.05Z" transform="translate(-287.87 -818.92)"/><path class="cls-2" d="M577.58,847.48l42.47,77.06a11,11,0,0,1,1.36,5.29v23.69a3.91,3.91,0,0,0,3.91,3.91H647a3.91,3.91,0,0,0,3.91-3.91V929.8a11,11,0,0,1,1.33-5.24l42.24-77.69a3.26,3.26,0,0,0-2.86-4.81H667.33a3.26,3.26,0,0,0-2.92,1.82l-23.33,47.35c-5.07,10.1-4.71,9.75-9.83-.33l-23.6-46.58a3.26,3.26,0,0,0-2.92-1.78l-24.31.12A3.26,3.26,0,0,0,577.58,847.48Z" transform="translate(-287.87 -818.92)"/><path class="cls-2" d="M795.51,853.94l-3.89,15.63a4.28,4.28,0,0,1-5.4,3.06c-7.1-2.17-22-6.1-36.8-6.1-20.48,0-17.56,15.23-6.91,18.07s32.42,5.46,43.77,13.07,15.8,19.43,10.65,36.82-31.37,30.34-77.48,19.43a137.93,137.93,0,0,1-16.19-4.65,3.67,3.67,0,0,1-2.36-4.42l4.64-17.23a3.66,3.66,0,0,1,4.72-2.51c7.8,2.66,26.35,8.45,39.62,8.36,17.21-.11,19-5.91,18.73-10.23s-3.28-8.07-15.92-10.57-32.3-5.23-42.37-15.68-10-36,8.31-46.94c17.56-10.46,42.23-8.2,58.4-5,7.06,1.4,12.29,2.79,15.54,3.75A4.27,4.27,0,0,1,795.51,853.94Z" transform="translate(-287.87 -818.92)"/><path class="cls-2" d="M878.77,842.63l-19,0a5.33,5.33,0,0,0-4.86,3.18l-47.11,107a3.26,3.26,0,0,0,3,4.57h23.35a3.26,3.26,0,0,0,3-2.06l6.13-15.54a3.26,3.26,0,0,1,3-2.06h46.13a3.26,3.26,0,0,1,3,2.08l6,15.51a3.26,3.26,0,0,0,3,2.08h23.34a3.26,3.26,0,0,0,3-4.57L883.66,845.81A5.33,5.33,0,0,0,878.77,842.63Zm-23.23,67.69,10.65-25.56a3.26,3.26,0,0,1,6,0L883,910.3a3.26,3.26,0,0,1-3,4.52H858.55A3.26,3.26,0,0,1,855.55,910.32Z" transform="translate(-287.87 -818.92)"/></svg>