<svg width="162" height="166" viewBox="0 0 162 166" fill="none" xmlns="http://www.w3.org/2000/svg">
<g clip-path="url(#clip0)">
<path d="M98.0527 9.31359L13.6523 28.8052L38.6735 154.32L123.074 134.829L98.0527 9.31359Z" fill="#E0E3E5"/>
<g opacity="0.5">
<path opacity="0.5" d="M97.0508 11.7653L15.5029 30.5981L39.6783 151.871L121.226 133.038L97.0508 11.7653Z" fill="url(#paint0_linear)"/>
</g>
<path d="M96.1895 12.8976L16.7178 31.251L40.359 149.844L119.831 131.491L96.1895 12.8976Z" fill="#F3F4F4"/>
<path d="M75.2452 12.3566L35.8203 21.4614L37.8694 31.7405L77.2944 22.6357L75.2452 12.3566Z" fill="url(#paint1_linear)"/>
<path d="M53.5306 6.86919C50.4868 7.5729 48.561 10.8618 49.2306 14.2145C49.9002 17.5672 52.9085 19.7187 55.9463 19.015C58.9842 18.3113 60.916 15.0224 60.2464 11.6697C59.5768 8.317 56.5745 6.16549 53.5306 6.86919ZM55.4407 16.4574C54.7974 16.6226 54.123 16.5778 53.5034 16.3288C52.8838 16.0799 52.3471 15.638 51.9618 15.0595C51.5764 14.481 51.3597 13.7922 51.3395 13.0807C51.3192 12.3692 51.4962 11.6673 51.8479 11.0645C52.1996 10.4617 52.7101 9.98524 53.3144 9.69588C53.9186 9.40652 54.5892 9.31735 55.2407 9.43973C55.8922 9.56212 56.4951 9.89051 56.9725 10.3831C57.45 10.8756 57.7804 11.51 57.9216 12.2054C58.0191 12.66 58.0323 13.1309 57.9603 13.5909C57.8883 14.051 57.7326 14.4912 57.502 14.8863C57.2715 15.2814 56.9707 15.6236 56.617 15.8932C56.2632 16.1629 55.8635 16.3546 55.4407 16.4574Z" fill="url(#paint2_linear)"/>
<path d="M74.7429 12.0112L36.1484 20.9243L38.1072 30.7503L76.7017 21.8372L74.7429 12.0112Z" fill="#58A3BE"/>
<path d="M53.531 6.86904C52.4642 7.11549 51.4892 7.69688 50.7294 8.53971C49.9696 9.38253 49.459 10.4489 49.2623 11.6041C49.0656 12.7592 49.1915 13.9512 49.6241 15.0293C50.0568 16.1074 50.7767 17.0232 51.6929 17.6609C52.6092 18.2986 53.6805 18.6296 54.7715 18.612C55.8624 18.5943 56.924 18.2289 57.8221 17.5619C58.7201 16.8949 59.4142 15.9563 59.8166 14.8647C60.219 13.7731 60.3116 12.5776 60.0828 11.4293C59.9308 10.6668 59.6408 9.94401 59.2293 9.30217C58.8178 8.66032 58.2928 8.11201 57.6844 7.68855C57.076 7.26508 56.3961 6.97475 55.6834 6.83414C54.9708 6.69353 54.2394 6.70539 53.531 6.86904ZM55.3561 16.0321C54.7403 16.1743 54.0992 16.1168 53.5138 15.8668C52.9284 15.6168 52.4251 15.1856 52.0674 14.6277C51.7097 14.0698 51.5138 13.4102 51.5043 12.7325C51.4949 12.0547 51.6725 11.3891 52.0145 10.82C52.3565 10.2508 52.8477 9.8036 53.4259 9.5349C54.0041 9.2662 54.6433 9.18808 55.2627 9.31043C55.8822 9.43277 56.454 9.75008 56.9059 10.2222C57.3577 10.6944 57.6694 11.3001 57.8014 11.9629C57.9784 12.8515 57.8202 13.7794 57.3616 14.5425C56.903 15.3056 56.1816 15.8414 55.3561 16.0321Z" fill="#58A3BE"/>
<path d="M137.261 24.855H50.9395V153.227H137.261V24.855Z" fill="#E0E3E5"/>
<g opacity="0.5">
<path opacity="0.5" d="M135.802 27.0259H52.3984V151.059H135.802V27.0259Z" fill="url(#paint3_linear)"/>
</g>
<path d="M134.74 27.9399H53.46V149.232H134.74V27.9399Z" fill="white"/>
<path d="M114.367 22.6802H74.0449V33.1932H114.367V22.6802Z" fill="url(#paint4_linear)"/>
<path d="M94.2066 12.418C91.0937 12.418 88.5693 15.1988 88.5693 18.6301C88.5693 22.0615 91.0937 24.8423 94.2066 24.8423C97.3196 24.8423 99.8439 22.0615 99.8439 18.6301C99.8439 15.1988 97.3196 12.418 94.2066 12.418ZM94.2066 22.2146C93.5448 22.2315 92.8934 22.0357 92.3354 21.6523C91.7775 21.2688 91.3384 20.7151 91.0741 20.0618C90.8099 19.4085 90.7326 18.6853 90.852 17.9844C90.9715 17.2836 91.2823 16.637 91.7447 16.1272C92.2071 15.6173 92.8002 15.2674 93.4483 15.1221C94.0964 14.9767 94.77 15.0426 95.3831 15.3112C95.9962 15.5798 96.5211 16.039 96.8906 16.6302C97.2602 17.2213 97.4577 17.9176 97.4578 18.6301C97.4642 19.5666 97.1257 20.4676 96.5164 21.1362C95.9071 21.8047 95.0766 22.1863 94.2066 22.1976V22.2146Z" fill="url(#paint5_linear)"/>
<path d="M113.943 22.2295H74.4697V32.2791H113.943V22.2295Z" fill="#58A3BE"/>
<path d="M94.2063 12.418C93.1151 12.418 92.0485 12.7662 91.1413 13.4187C90.234 14.0712 89.5269 14.9985 89.1094 16.0835C88.6918 17.1686 88.5826 18.3625 88.7955 19.5143C89.0083 20.6661 89.5338 21.7242 90.3053 22.5546C91.0768 23.385 92.0598 23.9506 93.13 24.1797C94.2001 24.4088 95.3094 24.2912 96.3175 23.8418C97.3255 23.3924 98.1871 22.6313 98.7933 21.6548C99.3995 20.6783 99.7231 19.5303 99.7231 18.3559C99.7231 16.781 99.1418 15.2707 98.1072 14.1571C97.0726 13.0436 95.6694 12.418 94.2063 12.418ZM94.2063 21.783C93.577 21.7821 92.9621 21.5806 92.4392 21.2039C91.9163 20.8272 91.5088 20.2922 91.2681 19.6664C91.0275 19.0406 90.9646 18.3521 91.0872 17.6878C91.2099 17.0235 91.5127 16.4133 91.9574 15.9341C92.402 15.4549 92.9686 15.1282 93.5857 14.9954C94.2027 14.8625 94.8424 14.9294 95.4242 15.1876C96.0059 15.4458 96.5035 15.8838 96.8541 16.4461C97.2048 17.0085 97.3927 17.6701 97.3943 18.3474C97.394 18.7976 97.3113 19.2434 97.151 19.6592C96.9906 20.075 96.7557 20.4528 96.4596 20.7708C96.1635 21.0889 95.8122 21.3411 95.4255 21.5129C95.0389 21.6848 94.6246 21.7729 94.2063 21.7724V21.783Z" fill="#58A3BE"/>
<g opacity="0.5">
<path opacity="0.5" d="M3.75929 156.697H3.0166V161.232H3.75929V156.697Z" fill="#F39D2D"/>
<path opacity="0.5" d="M5.49512 159.365V158.565H1.28197V159.365H5.49512Z" fill="#F39D2D"/>
</g>
<g opacity="0.5">
<path opacity="0.5" d="M89.9224 0H89.1797V4.53475H89.9224V0Z" fill="#F39D2D"/>
<path opacity="0.5" d="M91.6582 2.66606V1.8667L87.445 1.8667V2.66606L91.6582 2.66606Z" fill="#F39D2D"/>
</g>
<path opacity="0.5" d="M152.305 164.246C152.1 164.15 151.936 163.976 151.842 163.758C151.748 163.539 151.733 163.292 151.798 163.062C151.808 163.027 151.815 162.99 151.817 162.953C151.823 162.848 151.798 162.743 151.744 162.655C151.69 162.567 151.612 162.499 151.52 162.463C151.428 162.426 151.327 162.423 151.233 162.453C151.139 162.482 151.057 162.544 150.998 162.628C150.977 162.658 150.96 162.69 150.946 162.724C150.857 162.944 150.696 163.122 150.493 163.222C150.29 163.323 150.06 163.34 149.846 163.27C149.813 163.259 149.78 163.252 149.745 163.249C149.648 163.242 149.55 163.27 149.468 163.328C149.386 163.386 149.324 163.47 149.29 163.569C149.256 163.668 149.253 163.776 149.28 163.877C149.308 163.979 149.365 164.068 149.443 164.131C149.471 164.153 149.501 164.172 149.532 164.186C149.737 164.282 149.902 164.456 149.995 164.674C150.089 164.893 150.105 165.14 150.04 165.371C150.029 165.406 150.023 165.442 150.02 165.479C150.014 165.584 150.04 165.689 150.093 165.777C150.147 165.865 150.226 165.933 150.318 165.969C150.41 166.006 150.51 166.009 150.604 165.98C150.698 165.95 150.781 165.888 150.84 165.804C150.86 165.775 150.877 165.743 150.891 165.709C150.98 165.488 151.142 165.311 151.344 165.21C151.547 165.109 151.778 165.092 151.991 165.162C152.024 165.173 152.058 165.181 152.092 165.183C152.19 165.19 152.287 165.162 152.369 165.104C152.451 165.047 152.514 164.962 152.548 164.863C152.581 164.764 152.585 164.656 152.557 164.555C152.53 164.454 152.472 164.365 152.394 164.301C152.367 164.279 152.337 164.26 152.305 164.246Z" fill="#F39D2D"/>
<path opacity="0.5" d="M26.9958 120.65C26.7909 120.554 26.626 120.38 26.5324 120.162C26.4388 119.944 26.423 119.696 26.4881 119.466C26.4986 119.431 26.5053 119.394 26.5079 119.358C26.5138 119.252 26.488 119.148 26.4344 119.059C26.3808 118.971 26.3022 118.904 26.2103 118.867C26.1183 118.831 26.0179 118.827 25.9238 118.857C25.8298 118.887 25.7472 118.948 25.6882 119.032C25.6676 119.062 25.6504 119.094 25.6368 119.128C25.5476 119.348 25.3863 119.526 25.1834 119.627C24.9805 119.727 24.7503 119.744 24.5366 119.674C24.5039 119.663 24.4701 119.656 24.4359 119.653C24.338 119.647 24.2409 119.674 24.1589 119.732C24.0768 119.79 24.0142 119.874 23.9803 119.973C23.9464 120.072 23.943 120.18 23.9706 120.282C23.9983 120.383 24.0554 120.472 24.1337 120.535C24.1612 120.557 24.191 120.576 24.2225 120.591C24.4274 120.687 24.5923 120.86 24.6859 121.079C24.7795 121.297 24.7953 121.545 24.7302 121.775C24.7197 121.81 24.713 121.846 24.7104 121.883C24.7045 121.989 24.7303 122.093 24.7839 122.181C24.8375 122.27 24.9161 122.337 25.008 122.374C25.1 122.41 25.2004 122.414 25.2945 122.384C25.3885 122.354 25.4711 122.293 25.5301 122.209C25.5507 122.179 25.5679 122.147 25.5815 122.113C25.6707 121.892 25.832 121.715 26.0349 121.614C26.2378 121.513 26.468 121.496 26.6817 121.566C26.7144 121.578 26.7482 121.585 26.7824 121.588C26.8803 121.594 26.9774 121.566 27.0594 121.509C27.1415 121.451 27.2041 121.366 27.238 121.267C27.2719 121.168 27.2753 121.06 27.2477 120.959C27.22 120.858 27.1629 120.769 27.0846 120.705C27.0571 120.683 27.0273 120.665 26.9958 120.65Z" fill="#F39D2D"/>
<path opacity="0.5" d="M131.368 14.4949C131.163 14.3989 130.998 14.2252 130.904 14.0069C130.811 13.7885 130.795 13.5407 130.86 13.3107C130.871 13.2755 130.877 13.2391 130.88 13.2023C130.886 13.097 130.86 12.9925 130.806 12.9041C130.753 12.8158 130.674 12.7484 130.582 12.712C130.49 12.6755 130.39 12.6718 130.296 12.7015C130.202 12.7313 130.119 12.7928 130.06 12.877C130.04 12.9066 130.022 12.9387 130.009 12.9727C129.92 13.1932 129.758 13.3707 129.555 13.4714C129.353 13.5722 129.122 13.5891 128.909 13.5191C128.876 13.5077 128.842 13.5006 128.808 13.4978C128.71 13.4915 128.613 13.5192 128.531 13.5769C128.449 13.6346 128.386 13.7192 128.352 13.8181C128.318 13.9171 128.315 14.0252 128.343 14.1264C128.37 14.2276 128.427 14.3166 128.506 14.3801C128.533 14.4022 128.563 14.4207 128.595 14.4354C128.799 14.5313 128.964 14.705 129.058 14.9234C129.152 15.1417 129.167 15.3895 129.102 15.6195C129.092 15.6547 129.085 15.6911 129.082 15.728C129.077 15.8333 129.102 15.9378 129.156 16.0261C129.21 16.1144 129.288 16.1818 129.38 16.2183C129.472 16.2548 129.572 16.2584 129.667 16.2287C129.761 16.199 129.843 16.1375 129.902 16.0532C129.923 16.0236 129.94 15.9915 129.954 15.9576C130.043 15.7371 130.204 15.5596 130.407 15.4588C130.61 15.3581 130.84 15.3411 131.054 15.4112C131.086 15.4225 131.12 15.4296 131.155 15.4325C131.252 15.4388 131.349 15.4111 131.431 15.3534C131.514 15.2957 131.576 15.2111 131.61 15.1121C131.644 15.0131 131.647 14.9051 131.62 14.8038C131.592 14.7026 131.535 14.6137 131.457 14.5502C131.429 14.5281 131.399 14.5095 131.368 14.4949Z" fill="#F39D2D"/>
<path opacity="0.5" d="M160.515 68.4571C161.336 68.4571 162.002 67.7404 162.002 66.8563C162.002 65.9721 161.336 65.2554 160.515 65.2554C159.693 65.2554 159.027 65.9721 159.027 66.8563C159.027 67.7404 159.693 68.4571 160.515 68.4571Z" fill="#F39D2D"/>
<path opacity="0.5" d="M45.5743 160.338C46.3957 160.338 47.0616 159.622 47.0616 158.738C47.0616 157.853 46.3957 157.137 45.5743 157.137C44.7528 157.137 44.0869 157.853 44.0869 158.738C44.0869 159.622 44.7528 160.338 45.5743 160.338Z" fill="#F39D2D"/>
<path opacity="0.5" d="M145.24 103.06C146.062 103.06 146.728 102.343 146.728 101.459C146.728 100.575 146.062 99.8579 145.24 99.8579C144.419 99.8579 143.753 100.575 143.753 101.459C143.753 102.343 144.419 103.06 145.24 103.06Z" fill="#F39D2D"/>
<path opacity="0.5" d="M17.212 22.0851C18.0334 22.0851 18.6993 21.3683 18.6993 20.4842C18.6993 19.6 18.0334 18.8833 17.212 18.8833C16.3905 18.8833 15.7246 19.6 15.7246 20.4842C15.7246 21.3683 16.3905 22.0851 17.212 22.0851Z" fill="#F39D2D"/>
<path opacity="0.5" d="M1.48734 65.755C2.30878 65.755 2.97469 65.0382 2.97469 64.1541C2.97469 63.27 2.30878 62.5532 1.48734 62.5532C0.665907 62.5532 0 63.27 0 64.1541C0 65.0382 0.665907 65.755 1.48734 65.755Z" fill="#F39D2D"/>
</g>
<defs>
<linearGradient id="paint0_linear" x1="80.4513" y1="142.455" x2="52.6383" y2="22.022" gradientUnits="userSpaceOnUse">
<stop stop-color="#808080" stop-opacity="0.25"/>
<stop offset="0.54" stop-color="#808080" stop-opacity="0.12"/>
<stop offset="1" stop-color="#808080" stop-opacity="0.1"/>
</linearGradient>
<linearGradient id="paint1_linear" x1="21689.2" y1="-3039.94" x2="21572.6" y2="-3544.72" gradientUnits="userSpaceOnUse">
<stop stop-color="#808080" stop-opacity="0.25"/>
<stop offset="0.54" stop-color="#808080" stop-opacity="0.12"/>
<stop offset="1" stop-color="#808080" stop-opacity="0.1"/>
</linearGradient>
<linearGradient id="paint2_linear" x1="6333.31" y1="346.743" x2="6170.68" y2="-357.469" gradientUnits="userSpaceOnUse">
<stop stop-color="#808080" stop-opacity="0.25"/>
<stop offset="0.54" stop-color="#808080" stop-opacity="0.12"/>
<stop offset="1" stop-color="#808080" stop-opacity="0.1"/>
</linearGradient>
<linearGradient id="paint3_linear" x1="39786" y1="88156.1" x2="39786" y2="15794.1" gradientUnits="userSpaceOnUse">
<stop stop-color="#808080" stop-opacity="0.25"/>
<stop offset="0.54" stop-color="#808080" stop-opacity="0.12"/>
<stop offset="1" stop-color="#808080" stop-opacity="0.1"/>
</linearGradient>
<linearGradient id="paint4_linear" x1="19305.3" y1="1664.08" x2="19305.3" y2="1144.21" gradientUnits="userSpaceOnUse">
<stop stop-color="#808080" stop-opacity="0.25"/>
<stop offset="0.54" stop-color="#808080" stop-opacity="0.12"/>
<stop offset="1" stop-color="#808080" stop-opacity="0.1"/>
</linearGradient>
<linearGradient id="paint5_linear" x1="7607.14" y1="2203.95" x2="7607.14" y2="1477.87" gradientUnits="userSpaceOnUse">
<stop stop-color="#808080" stop-opacity="0.25"/>
<stop offset="0.54" stop-color="#808080" stop-opacity="0.12"/>
<stop offset="1" stop-color="#808080" stop-opacity="0.1"/>
</linearGradient>
<clipPath id="clip0">
<rect width="162" height="166" fill="white"/>
</clipPath>
</defs>
</svg>
