<svg width="18" height="18" viewBox="0 0 18 18" fill="none" xmlns="http://www.w3.org/2000/svg">
<path d="M13.6452 8.41935V9.58064C13.6452 9.82016 13.4492 10.0161 13.2097 10.0161H10.0161V13.2097C10.0161 13.4492 9.82016 13.6452 9.58064 13.6452H8.41935C8.17984 13.6452 7.98387 13.4492 7.98387 13.2097V10.0161H4.79032C4.55081 10.0161 4.35484 9.82016 4.35484 9.58064V8.41935C4.35484 8.17984 4.55081 7.98387 4.79032 7.98387H7.98387V4.79032C7.98387 4.55081 8.17984 4.35484 8.41935 4.35484H9.58064C9.82016 4.35484 10.0161 4.55081 10.0161 4.79032V7.98387H13.2097C13.4492 7.98387 13.6452 8.17984 13.6452 8.41935ZM18 9C18 13.9718 13.9718 18 9 18C4.02823 18 0 13.9718 0 9C0 4.02823 4.02823 0 9 0C13.9718 0 18 4.02823 18 9ZM16.2581 9C16.2581 4.98992 13.0101 1.74194 9 1.74194C4.98992 1.74194 1.74194 4.98992 1.74194 9C1.74194 13.0101 4.98992 16.2581 9 16.2581C13.0101 16.2581 16.2581 13.0101 16.2581 9Z" fill="#58A3BE"/>
</svg>
