<svg width="162" height="166" viewBox="0 0 162 166" fill="none" xmlns="http://www.w3.org/2000/svg">
<g clip-path="url(#clip0)">
<path d="M98.0532 9.31347L13.6528 28.8051L38.674 154.32L123.074 134.829L98.0532 9.31347Z" fill="#E0E3E5"/>
<path opacity="0.5" d="M97.0508 11.765L15.5029 30.5978L39.6783 151.87L121.226 133.038L97.0508 11.765Z" fill="url(#paint0_linear)"/>
<path d="M96.19 12.8974L16.7183 31.2507L40.3595 149.844L119.831 131.491L96.19 12.8974Z" fill="#F3F4F4"/>
<path d="M75.2457 12.3564L35.8208 21.4612L37.8699 31.7403L77.2948 22.6355L75.2457 12.3564Z" fill="url(#paint1_linear)"/>
<path d="M53.5306 6.86913C50.4868 7.57284 48.561 10.8618 49.2306 14.2144C49.9002 17.5671 52.9085 19.7187 55.9463 19.015C58.9842 18.3112 60.916 15.0223 60.2464 11.6696C59.5768 8.31694 56.5745 6.16543 53.5306 6.86913ZM55.4407 16.4574C54.7974 16.6225 54.123 16.5777 53.5034 16.3288C52.8838 16.0798 52.3471 15.6379 51.9618 15.0595C51.5764 14.481 51.3597 13.7921 51.3395 13.0806C51.3192 12.3691 51.4962 11.6673 51.8479 11.0644C52.1996 10.4616 52.7101 9.98518 53.3144 9.69582C53.9186 9.40646 54.5892 9.31729 55.2407 9.43967C55.8922 9.56206 56.4951 9.89045 56.9725 10.383C57.45 10.8756 57.7804 11.51 57.9216 12.2054C58.0191 12.66 58.0323 13.1308 57.9603 13.5909C57.8883 14.0509 57.7326 14.4912 57.502 14.8863C57.2715 15.2814 56.9707 15.6236 56.617 15.8932C56.2632 16.1628 55.8635 16.3545 55.4407 16.4574Z" fill="url(#paint2_linear)"/>
<path d="M74.7424 12.0114L36.1479 20.9245L38.1067 30.7505L76.7012 21.8374L74.7424 12.0114Z" fill="#58A3BE"/>
<path d="M53.5305 6.8691C52.4637 7.11555 51.4887 7.69694 50.7289 8.53977C49.9691 9.38259 49.4585 10.449 49.2618 11.6041C49.0651 12.7593 49.191 13.9512 49.6236 15.0293C50.0563 16.1074 50.7762 17.0233 51.6925 17.661C52.6087 18.2987 53.68 18.6296 54.771 18.612C55.8619 18.5944 56.9236 18.229 57.8216 17.562C58.7196 16.895 59.4137 15.9563 59.8161 14.8647C60.2185 13.7731 60.3111 12.5776 60.0823 11.4294C59.9303 10.6669 59.6403 9.94407 59.2288 9.30223C58.8173 8.66038 58.2923 8.11207 57.6839 7.68861C57.0755 7.26514 56.3956 6.97481 55.6829 6.8342C54.9703 6.69359 54.2389 6.70545 53.5305 6.8691ZM55.3556 16.0321C54.7398 16.1744 54.0987 16.1168 53.5133 15.8669C52.9279 15.6169 52.4246 15.1857 52.0669 14.6277C51.7092 14.0698 51.5133 13.4103 51.5039 12.7325C51.4944 12.0547 51.672 11.3892 52.014 10.82C52.3561 10.2509 52.8472 9.80366 53.4254 9.53496C54.0036 9.26626 54.6428 9.18814 55.2623 9.31049C55.8817 9.43283 56.4535 9.75014 56.9054 10.2223C57.3573 10.6944 57.6689 11.3002 57.8009 11.963C57.9779 12.8516 57.8197 13.7795 57.3611 14.5426C56.9025 15.3057 56.1811 15.8415 55.3556 16.0321Z" fill="#58A3BE"/>
<path d="M137.26 24.855H50.939V153.227H137.26V24.855Z" fill="#E0E3E5"/>
<path opacity="0.5" d="M135.802 27.0256H52.3984V151.058H135.802V27.0256Z" fill="url(#paint3_linear)"/>
<path d="M134.74 27.9399H53.4595V149.232H134.74V27.9399Z" fill="white"/>
<path d="M114.368 22.6802H74.0454V33.1932H114.368V22.6802Z" fill="url(#paint4_linear)"/>
<path d="M94.2066 12.4179C91.0937 12.4179 88.5693 15.1987 88.5693 18.6301C88.5693 22.0614 91.0937 24.8422 94.2066 24.8422C97.3196 24.8422 99.8439 22.0614 99.8439 18.6301C99.8439 15.1987 97.3196 12.4179 94.2066 12.4179ZM94.2066 22.2145C93.5448 22.2314 92.8934 22.0356 92.3354 21.6522C91.7775 21.2687 91.3384 20.715 91.0741 20.0617C90.8099 19.4084 90.7326 18.6852 90.852 17.9844C90.9715 17.2836 91.2823 16.6369 91.7447 16.1271C92.2071 15.6173 92.8002 15.2674 93.4483 15.122C94.0964 14.9767 94.77 15.0425 95.3831 15.3111C95.9962 15.5798 96.5211 16.039 96.8906 16.6301C97.2602 17.2213 97.4577 17.9176 97.4578 18.6301C97.4642 19.5665 97.1257 20.4676 96.5164 21.1361C95.9071 21.8047 95.0766 22.1863 94.2066 22.1975V22.2145Z" fill="url(#paint5_linear)"/>
<path d="M113.943 22.2294H74.4697V32.279H113.943V22.2294Z" fill="#58A3BE"/>
<path d="M94.2063 12.4179C93.1151 12.4179 92.0485 12.7662 91.1413 13.4186C90.234 14.0711 89.5269 14.9985 89.1094 16.0835C88.6918 17.1685 88.5826 18.3624 88.7955 19.5142C89.0083 20.6661 89.5338 21.7241 90.3053 22.5546C91.0768 23.385 92.0598 23.9505 93.13 24.1796C94.2001 24.4087 95.3094 24.2912 96.3175 23.8417C97.3255 23.3923 98.1871 22.6312 98.7933 21.6547C99.3995 20.6783 99.7231 19.5302 99.7231 18.3558C99.7231 16.781 99.1418 15.2707 98.1072 14.1571C97.0726 13.0435 95.6694 12.4179 94.2063 12.4179ZM94.2063 21.7829C93.577 21.7821 92.9621 21.5806 92.4392 21.2039C91.9163 20.8272 91.5088 20.2921 91.2681 19.6663C91.0275 19.0405 90.9646 18.352 91.0872 17.6877C91.2099 17.0235 91.5127 16.4132 91.9574 15.934C92.402 15.4548 92.9686 15.1281 93.5857 14.9953C94.2027 14.8624 94.8424 14.9293 95.4242 15.1876C96.0059 15.4458 96.5035 15.8837 96.8541 16.4461C97.2048 17.0085 97.3927 17.67 97.3943 18.3473C97.394 18.7975 97.3113 19.2433 97.151 19.6591C96.9906 20.075 96.7557 20.4527 96.4596 20.7708C96.1635 21.0888 95.8122 21.341 95.4255 21.5128C95.0389 21.6847 94.6246 21.7729 94.2063 21.7723V21.7829Z" fill="#58A3BE"/>
<path opacity="0.5" d="M3.7588 156.697H3.01611V161.231H3.7588V156.697Z" fill="#F39D2D"/>
<path opacity="0.5" d="M5.49512 159.365V158.565H1.28197V159.365H5.49512Z" fill="#F39D2D"/>
<path opacity="0.5" d="M89.9219 0H89.1792V4.53475H89.9219V0Z" fill="#F39D2D"/>
<path opacity="0.5" d="M91.6582 2.666V1.86664L87.445 1.86664V2.666L91.6582 2.666Z" fill="#F39D2D"/>
<path opacity="0.5" d="M152.305 164.246C152.1 164.15 151.936 163.976 151.842 163.758C151.748 163.54 151.733 163.292 151.798 163.062C151.808 163.027 151.815 162.99 151.817 162.953C151.823 162.848 151.798 162.744 151.744 162.655C151.69 162.567 151.612 162.5 151.52 162.463C151.428 162.427 151.327 162.423 151.233 162.453C151.139 162.482 151.057 162.544 150.998 162.628C150.977 162.658 150.96 162.69 150.946 162.724C150.857 162.944 150.696 163.122 150.493 163.223C150.29 163.323 150.06 163.34 149.846 163.27C149.813 163.259 149.78 163.252 149.745 163.249C149.648 163.243 149.55 163.27 149.468 163.328C149.386 163.386 149.324 163.47 149.29 163.569C149.256 163.668 149.253 163.776 149.28 163.878C149.308 163.979 149.365 164.068 149.443 164.131C149.471 164.153 149.501 164.172 149.532 164.187C149.737 164.283 149.902 164.456 149.995 164.675C150.089 164.893 150.105 165.141 150.04 165.371C150.029 165.406 150.023 165.442 150.02 165.479C150.014 165.584 150.04 165.689 150.093 165.777C150.147 165.866 150.226 165.933 150.318 165.969C150.41 166.006 150.51 166.01 150.604 165.98C150.698 165.95 150.781 165.889 150.84 165.804C150.86 165.775 150.877 165.743 150.891 165.709C150.98 165.488 151.142 165.311 151.344 165.21C151.547 165.109 151.778 165.092 151.991 165.162C152.024 165.174 152.058 165.181 152.092 165.184C152.19 165.19 152.287 165.162 152.369 165.105C152.451 165.047 152.514 164.962 152.548 164.863C152.581 164.764 152.585 164.656 152.557 164.555C152.53 164.454 152.472 164.365 152.394 164.301C152.367 164.279 152.337 164.261 152.305 164.246Z" fill="#F39D2D"/>
<path opacity="0.5" d="M26.9953 120.65C26.7904 120.554 26.6255 120.381 26.5319 120.162C26.4383 119.944 26.4225 119.696 26.4876 119.466C26.4981 119.431 26.5048 119.395 26.5074 119.358C26.5133 119.252 26.4875 119.148 26.4339 119.06C26.3803 118.971 26.3017 118.904 26.2098 118.867C26.1178 118.831 26.0174 118.827 25.9234 118.857C25.8293 118.887 25.7467 118.948 25.6877 119.032C25.6671 119.062 25.6499 119.094 25.6363 119.128C25.5471 119.349 25.3858 119.526 25.1829 119.627C24.98 119.728 24.7498 119.745 24.5361 119.675C24.5034 119.663 24.4696 119.656 24.4354 119.653C24.3376 119.647 24.2404 119.675 24.1584 119.732C24.0763 119.79 24.0137 119.875 23.9798 119.974C23.9459 120.073 23.9425 120.181 23.9702 120.282C23.9978 120.383 24.0549 120.472 24.1332 120.536C24.1607 120.558 24.1905 120.576 24.2221 120.591C24.4269 120.687 24.5918 120.861 24.6854 121.079C24.779 121.297 24.7948 121.545 24.7297 121.775C24.7192 121.81 24.7125 121.847 24.7099 121.883C24.704 121.989 24.7298 122.093 24.7834 122.182C24.837 122.27 24.9156 122.337 25.0076 122.374C25.0995 122.41 25.1999 122.414 25.294 122.384C25.388 122.354 25.4706 122.293 25.5297 122.209C25.5502 122.179 25.5674 122.147 25.581 122.113C25.6702 121.893 25.8316 121.715 26.0344 121.614C26.2373 121.514 26.4675 121.497 26.6812 121.567C26.7139 121.578 26.7477 121.585 26.7819 121.588C26.8798 121.594 26.9769 121.567 27.0589 121.509C27.141 121.451 27.2036 121.367 27.2375 121.268C27.2714 121.169 27.2748 121.061 27.2472 120.959C27.2196 120.858 27.1624 120.769 27.0842 120.706C27.0566 120.684 27.0268 120.665 26.9953 120.65Z" fill="#F39D2D"/>
<path opacity="0.5" d="M131.368 14.4951C131.163 14.3991 130.999 14.2254 130.905 14.007C130.811 13.7887 130.796 13.5409 130.861 13.3109C130.871 13.2757 130.878 13.2393 130.88 13.2025C130.886 13.0972 130.861 12.9926 130.807 12.9043C130.753 12.816 130.675 12.7486 130.583 12.7121C130.491 12.6757 130.39 12.672 130.296 12.7017C130.202 12.7315 130.12 12.793 130.061 12.8772C130.04 12.9068 130.023 12.9389 130.009 12.9729C129.92 13.1933 129.759 13.3708 129.556 13.4716C129.353 13.5723 129.123 13.5893 128.909 13.5192C128.876 13.5079 128.843 13.5008 128.808 13.498C128.711 13.4916 128.613 13.5194 128.531 13.5771C128.449 13.6347 128.387 13.7193 128.353 13.8183C128.319 13.9173 128.316 14.0254 128.343 14.1266C128.371 14.2278 128.428 14.3167 128.506 14.3803C128.534 14.4024 128.564 14.4209 128.595 14.4355C128.8 14.5315 128.965 14.7052 129.058 14.9236C129.152 15.1419 129.168 15.3897 129.103 15.6197C129.092 15.6549 129.086 15.6913 129.083 15.7282C129.077 15.8334 129.103 15.938 129.156 16.0263C129.21 16.1146 129.289 16.182 129.381 16.2185C129.473 16.255 129.573 16.2586 129.667 16.2289C129.761 16.1992 129.844 16.1376 129.903 16.0534C129.923 16.0238 129.94 15.9917 129.954 15.9578C130.043 15.7373 130.205 15.5598 130.407 15.459C130.61 15.3583 130.841 15.3413 131.054 15.4114C131.087 15.4227 131.121 15.4298 131.155 15.4326C131.253 15.439 131.35 15.4113 131.432 15.3536C131.514 15.2959 131.577 15.2113 131.611 15.1123C131.644 15.0133 131.648 14.9052 131.62 14.804C131.593 14.7028 131.535 14.6139 131.457 14.5503C131.43 14.5282 131.4 14.5097 131.368 14.4951Z" fill="#F39D2D"/>
<path opacity="0.5" d="M160.515 68.4571C161.336 68.4571 162.002 67.7404 162.002 66.8563C162.002 65.9721 161.336 65.2554 160.515 65.2554C159.693 65.2554 159.027 65.9721 159.027 66.8563C159.027 67.7404 159.693 68.4571 160.515 68.4571Z" fill="#F39D2D"/>
<path opacity="0.5" d="M45.5743 160.338C46.3957 160.338 47.0616 159.622 47.0616 158.738C47.0616 157.853 46.3957 157.137 45.5743 157.137C44.7528 157.137 44.0869 157.853 44.0869 158.738C44.0869 159.622 44.7528 160.338 45.5743 160.338Z" fill="#F39D2D"/>
<path opacity="0.5" d="M145.24 103.06C146.062 103.06 146.728 102.343 146.728 101.459C146.728 100.575 146.062 99.8581 145.24 99.8581C144.419 99.8581 143.753 100.575 143.753 101.459C143.753 102.343 144.419 103.06 145.24 103.06Z" fill="#F39D2D"/>
<path opacity="0.5" d="M17.212 22.0849C18.0334 22.0849 18.6993 21.3681 18.6993 20.484C18.6993 19.5999 18.0334 18.8831 17.212 18.8831C16.3905 18.8831 15.7246 19.5999 15.7246 20.484C15.7246 21.3681 16.3905 22.0849 17.212 22.0849Z" fill="#F39D2D"/>
<path opacity="0.5" d="M1.48734 65.755C2.30878 65.755 2.97469 65.0382 2.97469 64.1541C2.97469 63.27 2.30878 62.5532 1.48734 62.5532C0.665907 62.5532 0 63.27 0 64.1541C0 65.0382 0.665907 65.755 1.48734 65.755Z" fill="#F39D2D"/>
</g>
<defs>
<linearGradient id="paint0_linear" x1="80.4513" y1="142.454" x2="52.6383" y2="22.0217" gradientUnits="userSpaceOnUse">
<stop stop-color="#808080" stop-opacity="0.25"/>
<stop offset="0.54" stop-color="#808080" stop-opacity="0.12"/>
<stop offset="1" stop-color="#808080" stop-opacity="0.1"/>
</linearGradient>
<linearGradient id="paint1_linear" x1="21689.2" y1="-3039.94" x2="21572.6" y2="-3544.72" gradientUnits="userSpaceOnUse">
<stop stop-color="#808080" stop-opacity="0.25"/>
<stop offset="0.54" stop-color="#808080" stop-opacity="0.12"/>
<stop offset="1" stop-color="#808080" stop-opacity="0.1"/>
</linearGradient>
<linearGradient id="paint2_linear" x1="6333.31" y1="346.743" x2="6170.68" y2="-357.469" gradientUnits="userSpaceOnUse">
<stop stop-color="#808080" stop-opacity="0.25"/>
<stop offset="0.54" stop-color="#808080" stop-opacity="0.12"/>
<stop offset="1" stop-color="#808080" stop-opacity="0.1"/>
</linearGradient>
<linearGradient id="paint3_linear" x1="39786" y1="88156.1" x2="39786" y2="15794.1" gradientUnits="userSpaceOnUse">
<stop stop-color="#808080" stop-opacity="0.25"/>
<stop offset="0.54" stop-color="#808080" stop-opacity="0.12"/>
<stop offset="1" stop-color="#808080" stop-opacity="0.1"/>
</linearGradient>
<linearGradient id="paint4_linear" x1="19305.3" y1="1664.08" x2="19305.3" y2="1144.21" gradientUnits="userSpaceOnUse">
<stop stop-color="#808080" stop-opacity="0.25"/>
<stop offset="0.54" stop-color="#808080" stop-opacity="0.12"/>
<stop offset="1" stop-color="#808080" stop-opacity="0.1"/>
</linearGradient>
<linearGradient id="paint5_linear" x1="7607.14" y1="2203.95" x2="7607.14" y2="1477.87" gradientUnits="userSpaceOnUse">
<stop stop-color="#808080" stop-opacity="0.25"/>
<stop offset="0.54" stop-color="#808080" stop-opacity="0.12"/>
<stop offset="1" stop-color="#808080" stop-opacity="0.1"/>
</linearGradient>
<clipPath id="clip0">
<rect width="162" height="166" fill="white"/>
</clipPath>
</defs>
</svg>
