<svg width="109" height="80" viewBox="0 0 109 80" fill="none" xmlns="http://www.w3.org/2000/svg">
<g clip-path="url(#clip0)">
<path d="M104.114 19.7731H50.1812C44.8837 19.7731 40.5887 24.1092 40.5887 29.4578V62.9792C40.5857 63.5745 40.7001 64.1646 40.9252 64.7157C41.1503 65.2668 41.4818 65.7681 41.9007 66.1911C42.3197 66.6141 42.8178 66.9504 43.3667 67.1808C43.9157 67.4113 44.5046 67.5313 45.0999 67.5341H79.3499C80.4899 71.4789 83.3499 76.9163 90.5549 79.3399L88.5212 67.5341H104.114C104.709 67.5313 105.298 67.4113 105.847 67.1808C106.396 66.9504 106.894 66.6141 107.313 66.1911C107.732 65.7681 108.063 65.2668 108.288 64.7157C108.514 64.1646 108.628 63.5745 108.625 62.9792V24.3279C108.628 23.7326 108.514 23.1426 108.288 22.5915C108.063 22.0404 107.732 21.539 107.313 21.116C106.894 20.693 106.396 20.3567 105.847 20.1263C105.298 19.8959 104.709 19.7759 104.114 19.7731Z" fill="url(#paint0_linear)"/>
<path d="M103.206 20.9031H50.8562C49.6334 20.9031 48.4226 21.1439 47.2929 21.6118C46.1632 22.0798 45.1368 22.7656 44.2721 23.6302C43.4075 24.4948 42.7216 25.5212 42.2537 26.6509C41.7858 27.7805 41.5449 28.9913 41.5449 30.214V62.4405C41.5449 63.6008 42.0059 64.7136 42.8263 65.534C43.6468 66.3545 44.7596 66.8154 45.9199 66.8154H79.1662C80.2724 70.6078 83.0524 75.8351 90.0412 78.165L88.0624 66.8191H103.2C104.36 66.8191 105.473 66.3582 106.294 65.5378C107.114 64.7173 107.575 63.6046 107.575 62.4443V25.2817C107.576 24.1218 107.116 23.0091 106.297 22.188C105.478 21.3669 104.366 20.9047 103.206 20.9031Z" fill="#FAFAFA"/>
<path d="M89.6549 29.269H62.5962V32.6514H89.6549V29.269Z" fill="#E0E0E0"/>
<path d="M89.5025 35.5138H79.355V38.8962H89.5025V35.5138Z" fill="#E0E0E0"/>
<path d="M89.3474 41.7574H69.3374V45.1398H89.3474V41.7574Z" fill="#E0E0E0"/>
<path d="M89.195 48.0022H64.655V51.3846H89.195V48.0022Z" fill="#E0E0E0"/>
<path d="M89.0413 54.2458H76.1025V57.6282H89.0413V54.2458Z" fill="#E0E0E0"/>
<path d="M4.48499 0H63.1612C65.6387 0 67.6462 2.03619 67.6462 4.54861V43.1511C67.6462 45.6636 65.6387 47.6997 63.1612 47.6997H29.11C27.9762 51.6396 25.1287 57.0745 17.9687 59.4906L19.9912 47.6997H4.49124C2.01374 47.6997 0.00624014 45.6636 0.00624014 43.1511V4.54611C-9.85991e-06 2.03619 2.00749 0 4.48499 0Z" fill="url(#paint1_linear)"/>
<path d="M5.15869 1.18372H62.4374C63.5978 1.18372 64.7106 1.64464 65.531 2.46508C66.3515 3.28553 66.8124 4.39829 66.8124 5.55858V42.7212C66.8124 43.8814 66.3515 44.9942 65.531 45.8147C64.7106 46.6351 63.5978 47.096 62.4374 47.096H29.1987C28.0924 50.8884 25.3124 56.1157 18.3237 58.4457L20.2974 47.096H5.15869C3.99837 47.096 2.88557 46.6351 2.0651 45.8147C1.24463 44.9942 0.783693 43.8814 0.783693 42.7212V5.56233C0.7832 4.9875 0.895999 4.4182 1.11564 3.88699C1.33529 3.35577 1.65747 2.87305 2.06377 2.46641C2.47008 2.05977 2.95254 1.73718 3.48359 1.51709C4.01463 1.297 4.58384 1.18372 5.15869 1.18372Z" fill="white"/>
<path d="M47.3288 8.32593H20.27V11.7083H47.3288V8.32593Z" fill="#58A3BE"/>
<path d="M30.5712 14.5696H20.4237V17.952H30.5712V14.5696Z" fill="#58A3BE"/>
<path d="M40.5874 20.8131H20.5774V24.1955H40.5874V20.8131Z" fill="#58A3BE"/>
<path d="M45.2712 27.0579H20.7312V30.4403H45.2712V27.0579Z" fill="#58A3BE"/>
<path d="M33.8238 33.3015H20.885V36.6839H33.8238V33.3015Z" fill="#58A3BE"/>
</g>
<defs>
<linearGradient id="paint0_linear" x1="74.6062" y1="79.3399" x2="74.6062" y2="19.7731" gradientUnits="userSpaceOnUse">
<stop offset="0.01" stop-color="#808080" stop-opacity="0.25"/>
<stop offset="0.54" stop-color="#808080" stop-opacity="0.12"/>
<stop offset="1" stop-color="#808080" stop-opacity="0.1"/>
</linearGradient>
<linearGradient id="paint1_linear" x1="29497.1" y1="36204.2" x2="29497.1" y2="7890.24" gradientUnits="userSpaceOnUse">
<stop offset="0.01" stop-color="#808080" stop-opacity="0.25"/>
<stop offset="0.54" stop-color="#808080" stop-opacity="0.12"/>
<stop offset="1" stop-color="#808080" stop-opacity="0.1"/>
</linearGradient>
<clipPath id="clip0">
<rect width="108.625" height="79.34" fill="white"/>
</clipPath>
</defs>
</svg>
